# xmcd CD database file
#
# Track frame offsets:
#	150
#	6753
#	20856
#	46157
#	66007
#	86495
#	124553
#	144731
#	184880
#	208957
#	250766
#	262530
#
# Disc length: 4303 seconds
#
# Revision: 0
# Processed by: cddbd v1.5.2PL0 Copyright (c) Steve Scherf et al.
# Submitted via: CDex 1.51
#
DISCID=a110cd0c
DTITLE=Canned Heat - The Boogie House Tapes Vol.3
DYEAR=2008
DGENRE=Blues
TTITLE0=Alan'Intro
TTITLE1=World in a jug
TTITLE2=You don't have to go
TTITLE3=Project blues
TTITLE4=Mi Huautla
TTITLE5=I'm her man
TTITLE6=too many drivers
TTITLE7=Catfish blues
TTITLE8=Future blues
TTITLE9=So sad
TTITLE10=Turpentine Moan
TTITLE11=On the road again
EXTD=YEAR: 2008
EXTT0=
EXTT1=
EXTT2=
EXTT3=
EXTT4=
EXTT5=
EXTT6=
EXTT7=
EXTT8=
EXTT9=
EXTT10=
EXTT11=
PLAYORDER=
